<mxfile host="app.diagrams.net" modified="2023-04-30T15:55:47.714Z" agent="Mozilla/5.0 (Windows NT 10.0; Win64; x64) AppleWebKit/537.36 (KHTML, like Gecko) Chrome/112.0.0.0 Safari/537.36" etag="VwfcSDi-i0mO1Lobs5TL" version="21.2.1" type="github">
  <diagram name="Page-1" id="7u2JexsHdkpoZC9PwfAM">
    <mxGraphModel dx="2016" dy="790" grid="1" gridSize="10" guides="1" tooltips="1" connect="1" arrows="1" fold="1" page="1" pageScale="1" pageWidth="291" pageHeight="413" math="0" shadow="0">
      <root>
        <mxCell id="0" />
        <mxCell id="1" parent="0" />
        <mxCell id="Du-NIZGoXaYUD2i4s6GD-2" value="truck:Shipping_Truck" style="rounded=0;whiteSpace=wrap;html=1;fontStyle=1;strokeWidth=2;" vertex="1" parent="1">
          <mxGeometry x="-195" y="50" width="130" height="60" as="geometry" />
        </mxCell>
        <mxCell id="Du-NIZGoXaYUD2i4s6GD-9" value="executer:execute_facade" style="rounded=0;whiteSpace=wrap;html=1;fontStyle=1;strokeWidth=2;" vertex="1" parent="1">
          <mxGeometry x="-490" y="50" width="160" height="60" as="geometry" />
        </mxCell>
        <mxCell id="Du-NIZGoXaYUD2i4s6GD-10" value="" style="endArrow=none;dashed=1;html=1;rounded=0;fontStyle=1;strokeWidth=2;" edge="1" parent="1" source="Du-NIZGoXaYUD2i4s6GD-56">
          <mxGeometry width="50" height="50" relative="1" as="geometry">
            <mxPoint x="-420.42" y="580" as="sourcePoint" />
            <mxPoint x="-420.42" y="110" as="targetPoint" />
          </mxGeometry>
        </mxCell>
        <mxCell id="Du-NIZGoXaYUD2i4s6GD-17" value="" style="endArrow=classic;html=1;rounded=0;fontStyle=1;strokeWidth=2;" edge="1" parent="1">
          <mxGeometry width="50" height="50" relative="1" as="geometry">
            <mxPoint x="-420" y="200" as="sourcePoint" />
            <mxPoint x="140" y="200" as="targetPoint" />
          </mxGeometry>
        </mxCell>
        <mxCell id="Du-NIZGoXaYUD2i4s6GD-18" value="2: Set_in_use(false)" style="text;html=1;align=center;verticalAlign=middle;whiteSpace=wrap;rounded=0;fontStyle=1;strokeWidth=2;" vertex="1" parent="1">
          <mxGeometry x="-340" y="370" width="130" height="30" as="geometry" />
        </mxCell>
        <mxCell id="Du-NIZGoXaYUD2i4s6GD-19" value="shipment_dao:ShipmentDAO" style="rounded=0;whiteSpace=wrap;html=1;fontStyle=1;strokeWidth=2;" vertex="1" parent="1">
          <mxGeometry x="51.5" y="40" width="189" height="60" as="geometry" />
        </mxCell>
        <mxCell id="Du-NIZGoXaYUD2i4s6GD-20" value="" style="endArrow=none;dashed=1;html=1;rounded=0;fontStyle=1;strokeWidth=2;" edge="1" parent="1">
          <mxGeometry width="50" height="50" relative="1" as="geometry">
            <mxPoint x="146.17" y="800" as="sourcePoint" />
            <mxPoint x="146.17" y="100" as="targetPoint" />
          </mxGeometry>
        </mxCell>
        <mxCell id="Du-NIZGoXaYUD2i4s6GD-24" value=":DataBase" style="rounded=0;whiteSpace=wrap;html=1;fontStyle=1;strokeWidth=2;" vertex="1" parent="1">
          <mxGeometry x="620" y="40" width="120" height="60" as="geometry" />
        </mxCell>
        <mxCell id="Du-NIZGoXaYUD2i4s6GD-25" value="" style="endArrow=none;dashed=1;html=1;rounded=0;fontStyle=1;strokeWidth=2;" edge="1" parent="1">
          <mxGeometry width="50" height="50" relative="1" as="geometry">
            <mxPoint x="680" y="800" as="sourcePoint" />
            <mxPoint x="680" y="100" as="targetPoint" />
          </mxGeometry>
        </mxCell>
        <mxCell id="Du-NIZGoXaYUD2i4s6GD-30" value="" style="endArrow=classic;html=1;rounded=0;fontStyle=1;strokeWidth=2;" edge="1" parent="1">
          <mxGeometry width="50" height="50" relative="1" as="geometry">
            <mxPoint x="680" y="570" as="sourcePoint" />
            <mxPoint x="680" y="570" as="targetPoint" />
          </mxGeometry>
        </mxCell>
        <mxCell id="Du-NIZGoXaYUD2i4s6GD-33" value="" style="endArrow=classic;html=1;rounded=0;fontStyle=1;strokeWidth=2;" edge="1" parent="1">
          <mxGeometry width="50" height="50" relative="1" as="geometry">
            <mxPoint x="-545" y="160" as="sourcePoint" />
            <mxPoint x="-425" y="160" as="targetPoint" />
          </mxGeometry>
        </mxCell>
        <mxCell id="Du-NIZGoXaYUD2i4s6GD-35" value="1.1: UpdateShipment(Shipment)" style="text;html=1;align=center;verticalAlign=middle;whiteSpace=wrap;rounded=0;fontStyle=1;strokeWidth=2;" vertex="1" parent="1">
          <mxGeometry x="-420" y="170" width="290" height="30" as="geometry" />
        </mxCell>
        <mxCell id="Du-NIZGoXaYUD2i4s6GD-38" value="truck_dao: ShippingTruckDAO" style="rounded=0;whiteSpace=wrap;html=1;fontStyle=1;strokeWidth=2;" vertex="1" parent="1">
          <mxGeometry x="345" y="40" width="183" height="60" as="geometry" />
        </mxCell>
        <mxCell id="Du-NIZGoXaYUD2i4s6GD-39" value="" style="endArrow=none;dashed=1;html=1;rounded=0;fontStyle=1;strokeWidth=2;" edge="1" parent="1">
          <mxGeometry width="50" height="50" relative="1" as="geometry">
            <mxPoint x="437" y="800" as="sourcePoint" />
            <mxPoint x="437" y="100" as="targetPoint" />
          </mxGeometry>
        </mxCell>
        <mxCell id="Du-NIZGoXaYUD2i4s6GD-42" value="" style="endArrow=classic;html=1;rounded=0;fontStyle=1;strokeWidth=2;" edge="1" parent="1">
          <mxGeometry width="50" height="50" relative="1" as="geometry">
            <mxPoint x="-413" y="540" as="sourcePoint" />
            <mxPoint x="430" y="540" as="targetPoint" />
          </mxGeometry>
        </mxCell>
        <mxCell id="Du-NIZGoXaYUD2i4s6GD-43" value="3: Update(Shipping_Truck)" style="text;html=1;align=center;verticalAlign=middle;whiteSpace=wrap;rounded=0;fontStyle=1;strokeWidth=2;" vertex="1" parent="1">
          <mxGeometry x="-426" y="510" width="290" height="30" as="geometry" />
        </mxCell>
        <mxCell id="Du-NIZGoXaYUD2i4s6GD-45" value="" style="endArrow=classic;html=1;rounded=0;exitX=0.028;exitY=1.033;exitDx=0;exitDy=0;exitPerimeter=0;fontStyle=1;strokeWidth=2;" edge="1" parent="1" source="Du-NIZGoXaYUD2i4s6GD-46">
          <mxGeometry width="50" height="50" relative="1" as="geometry">
            <mxPoint x="163" y="260" as="sourcePoint" />
            <mxPoint x="670" y="250" as="targetPoint" />
            <Array as="points" />
          </mxGeometry>
        </mxCell>
        <mxCell id="Du-NIZGoXaYUD2i4s6GD-46" value="1.2: Update()" style="text;html=1;align=center;verticalAlign=middle;whiteSpace=wrap;rounded=0;fontStyle=1;strokeWidth=2;" vertex="1" parent="1">
          <mxGeometry x="147" y="220" width="290" height="30" as="geometry" />
        </mxCell>
        <mxCell id="Du-NIZGoXaYUD2i4s6GD-48" value="" style="endArrow=block;dashed=1;endFill=0;endSize=12;html=1;rounded=0;exitX=0;exitY=1;exitDx=0;exitDy=0;fontStyle=1;strokeWidth=2;" edge="1" parent="1">
          <mxGeometry width="160" relative="1" as="geometry">
            <mxPoint x="146" y="300" as="sourcePoint" />
            <mxPoint x="-415" y="300" as="targetPoint" />
            <Array as="points">
              <mxPoint x="100" y="300" />
            </Array>
          </mxGeometry>
        </mxCell>
        <mxCell id="Du-NIZGoXaYUD2i4s6GD-50" value="return false" style="text;html=1;align=center;verticalAlign=middle;whiteSpace=wrap;rounded=0;fontStyle=1;strokeWidth=2;" vertex="1" parent="1">
          <mxGeometry x="250" y="650" width="89" height="30" as="geometry" />
        </mxCell>
        <mxCell id="Du-NIZGoXaYUD2i4s6GD-52" value="false" style="text;html=1;align=center;verticalAlign=middle;whiteSpace=wrap;rounded=0;fontStyle=1;strokeWidth=2;" vertex="1" parent="1">
          <mxGeometry x="-50" y="270" width="89" height="30" as="geometry" />
        </mxCell>
        <mxCell id="Du-NIZGoXaYUD2i4s6GD-57" value="" style="endArrow=none;dashed=1;html=1;rounded=0;fontStyle=1;strokeWidth=2;" edge="1" parent="1" target="Du-NIZGoXaYUD2i4s6GD-56">
          <mxGeometry width="50" height="50" relative="1" as="geometry">
            <mxPoint x="-420" y="800.8333333333334" as="sourcePoint" />
            <mxPoint x="-420.42" y="110" as="targetPoint" />
          </mxGeometry>
        </mxCell>
        <mxCell id="Du-NIZGoXaYUD2i4s6GD-56" value="" style="html=1;points=[];perimeter=orthogonalPerimeter;outlineConnect=0;targetShapes=umlLifeline;portConstraint=eastwest;newEdgeStyle={&quot;edgeStyle&quot;:&quot;elbowEdgeStyle&quot;,&quot;elbow&quot;:&quot;vertical&quot;,&quot;curved&quot;:0,&quot;rounded&quot;:0};fontStyle=1;strokeWidth=2;" vertex="1" parent="1">
          <mxGeometry x="-425" y="120" width="10" height="610" as="geometry" />
        </mxCell>
        <mxCell id="Du-NIZGoXaYUD2i4s6GD-59" value="" style="endArrow=block;dashed=1;endFill=0;endSize=12;html=1;rounded=0;exitX=0;exitY=1;exitDx=0;exitDy=0;fontStyle=1;strokeWidth=2;" edge="1" parent="1">
          <mxGeometry width="160" relative="1" as="geometry">
            <mxPoint x="146" y="340" as="sourcePoint" />
            <mxPoint x="-415" y="340" as="targetPoint" />
          </mxGeometry>
        </mxCell>
        <mxCell id="Du-NIZGoXaYUD2i4s6GD-60" value="true" style="text;html=1;align=center;verticalAlign=middle;whiteSpace=wrap;rounded=0;fontStyle=1;strokeWidth=2;" vertex="1" parent="1">
          <mxGeometry x="-50" y="310" width="89" height="30" as="geometry" />
        </mxCell>
        <mxCell id="Du-NIZGoXaYUD2i4s6GD-61" value="" style="endArrow=block;dashed=1;endFill=0;endSize=12;html=1;rounded=0;fontStyle=1;strokeWidth=2;" edge="1" parent="1">
          <mxGeometry width="160" relative="1" as="geometry">
            <mxPoint x="-415" y="679.1700000000001" as="sourcePoint" />
            <mxPoint x="-530" y="679" as="targetPoint" />
          </mxGeometry>
        </mxCell>
        <mxCell id="Du-NIZGoXaYUD2i4s6GD-64" value="error message&amp;nbsp;" style="text;html=1;align=center;verticalAlign=middle;whiteSpace=wrap;rounded=0;fontStyle=1;strokeWidth=2;" vertex="1" parent="1">
          <mxGeometry x="-515" y="650" width="89" height="30" as="geometry" />
        </mxCell>
        <mxCell id="Du-NIZGoXaYUD2i4s6GD-73" value="" style="endArrow=block;dashed=1;endFill=0;endSize=12;html=1;rounded=0;fontStyle=1;strokeWidth=2;" edge="1" parent="1">
          <mxGeometry width="160" relative="1" as="geometry">
            <mxPoint x="436" y="680" as="sourcePoint" />
            <mxPoint x="-415" y="680" as="targetPoint" />
            <Array as="points">
              <mxPoint x="110" y="680" />
              <mxPoint x="-310" y="680" />
            </Array>
          </mxGeometry>
        </mxCell>
        <mxCell id="Du-NIZGoXaYUD2i4s6GD-74" value="" style="endArrow=block;dashed=1;endFill=0;endSize=12;html=1;rounded=0;fontStyle=1;strokeWidth=2;" edge="1" parent="1">
          <mxGeometry width="160" relative="1" as="geometry">
            <mxPoint x="677" y="640" as="sourcePoint" />
            <mxPoint x="437" y="640" as="targetPoint" />
          </mxGeometry>
        </mxCell>
        <mxCell id="Du-NIZGoXaYUD2i4s6GD-75" value="exception" style="text;html=1;align=center;verticalAlign=middle;whiteSpace=wrap;rounded=0;fontStyle=1;strokeWidth=2;" vertex="1" parent="1">
          <mxGeometry x="520" y="610" width="89" height="30" as="geometry" />
        </mxCell>
        <mxCell id="Du-NIZGoXaYUD2i4s6GD-76" value="" style="endArrow=classic;html=1;rounded=0;fontStyle=1;strokeWidth=2;" edge="1" parent="1">
          <mxGeometry width="50" height="50" relative="1" as="geometry">
            <mxPoint x="437" y="570" as="sourcePoint" />
            <mxPoint x="437" y="570" as="targetPoint" />
          </mxGeometry>
        </mxCell>
        <mxCell id="Du-NIZGoXaYUD2i4s6GD-77" value="return true" style="text;html=1;align=center;verticalAlign=middle;whiteSpace=wrap;rounded=0;fontStyle=1;strokeWidth=2;" vertex="1" parent="1">
          <mxGeometry x="250" y="690" width="89" height="30" as="geometry" />
        </mxCell>
        <mxCell id="Du-NIZGoXaYUD2i4s6GD-78" value="" style="endArrow=block;dashed=1;endFill=0;endSize=12;html=1;rounded=0;fontStyle=1;strokeWidth=2;" edge="1" parent="1">
          <mxGeometry width="160" relative="1" as="geometry">
            <mxPoint x="436" y="720" as="sourcePoint" />
            <mxPoint x="-415" y="720" as="targetPoint" />
            <Array as="points">
              <mxPoint x="110" y="720" />
              <mxPoint x="-310" y="720" />
            </Array>
          </mxGeometry>
        </mxCell>
        <mxCell id="Du-NIZGoXaYUD2i4s6GD-80" value="" style="endArrow=classic;html=1;rounded=0;fontStyle=1;strokeWidth=2;" edge="1" parent="1">
          <mxGeometry width="50" height="50" relative="1" as="geometry">
            <mxPoint x="-415" y="404.58" as="sourcePoint" />
            <mxPoint x="-135" y="404.5799999999999" as="targetPoint" />
            <Array as="points">
              <mxPoint x="-275" y="404.58" />
              <mxPoint x="-165" y="404.58" />
              <mxPoint x="-145" y="404.58" />
            </Array>
          </mxGeometry>
        </mxCell>
        <mxCell id="Du-NIZGoXaYUD2i4s6GD-82" value="" style="endArrow=open;endFill=1;endSize=12;html=1;rounded=0;fontStyle=1;strokeWidth=2;entryX=0.87;entryY=1.017;entryDx=0;entryDy=0;entryPerimeter=0;" edge="1" parent="1" source="Du-NIZGoXaYUD2i4s6GD-103" target="Du-NIZGoXaYUD2i4s6GD-83">
          <mxGeometry width="160" relative="1" as="geometry">
            <mxPoint x="437" y="580" as="sourcePoint" />
            <mxPoint x="680" y="580" as="targetPoint" />
          </mxGeometry>
        </mxCell>
        <mxCell id="Du-NIZGoXaYUD2i4s6GD-83" value="3.2: Update()" style="text;html=1;align=center;verticalAlign=middle;whiteSpace=wrap;rounded=0;fontStyle=1;strokeWidth=2;" vertex="1" parent="1">
          <mxGeometry x="419.5" y="550" width="290" height="30" as="geometry" />
        </mxCell>
        <mxCell id="Du-NIZGoXaYUD2i4s6GD-85" value="" style="endArrow=block;dashed=1;endFill=0;endSize=12;html=1;rounded=0;fontStyle=1;strokeWidth=2;" edge="1" parent="1">
          <mxGeometry width="160" relative="1" as="geometry">
            <mxPoint x="-413" y="299.1700000000001" as="sourcePoint" />
            <mxPoint x="-528" y="299" as="targetPoint" />
          </mxGeometry>
        </mxCell>
        <mxCell id="Du-NIZGoXaYUD2i4s6GD-86" value="error message&amp;nbsp;" style="text;html=1;align=center;verticalAlign=middle;whiteSpace=wrap;rounded=0;fontStyle=1;strokeWidth=2;" vertex="1" parent="1">
          <mxGeometry x="-513" y="270" width="89" height="30" as="geometry" />
        </mxCell>
        <mxCell id="Du-NIZGoXaYUD2i4s6GD-87" value="" style="endArrow=block;dashed=1;endFill=0;endSize=12;html=1;rounded=0;fontStyle=1;strokeWidth=2;" edge="1" parent="1">
          <mxGeometry width="160" relative="1" as="geometry">
            <mxPoint x="677" y="300" as="sourcePoint" />
            <mxPoint x="150" y="300.25" as="targetPoint" />
          </mxGeometry>
        </mxCell>
        <mxCell id="Du-NIZGoXaYUD2i4s6GD-88" value="exception" style="text;html=1;align=center;verticalAlign=middle;whiteSpace=wrap;rounded=0;fontStyle=1;strokeWidth=2;" vertex="1" parent="1">
          <mxGeometry x="520" y="275" width="89" height="30" as="geometry" />
        </mxCell>
        <mxCell id="Du-NIZGoXaYUD2i4s6GD-89" value="alt" style="shape=umlFrame;whiteSpace=wrap;html=1;pointerEvents=0;fontStyle=1;strokeWidth=2;" vertex="1" parent="1">
          <mxGeometry x="-570" y="220" width="1350" height="140" as="geometry" />
        </mxCell>
        <mxCell id="Du-NIZGoXaYUD2i4s6GD-91" value="alt" style="shape=umlFrame;whiteSpace=wrap;html=1;pointerEvents=0;fontStyle=1;strokeWidth=2;" vertex="1" parent="1">
          <mxGeometry x="-570" y="610" width="1350" height="140" as="geometry" />
        </mxCell>
        <mxCell id="Du-NIZGoXaYUD2i4s6GD-93" value="" style="endArrow=none;dashed=1;html=1;rounded=0;exitX=0.001;exitY=0.655;exitDx=0;exitDy=0;exitPerimeter=0;fontStyle=1;strokeWidth=2;" edge="1" parent="1" source="Du-NIZGoXaYUD2i4s6GD-89">
          <mxGeometry width="50" height="50" relative="1" as="geometry">
            <mxPoint x="-412" y="314" as="sourcePoint" />
            <mxPoint x="790" y="314" as="targetPoint" />
          </mxGeometry>
        </mxCell>
        <mxCell id="Du-NIZGoXaYUD2i4s6GD-94" value="" style="endArrow=none;dashed=1;html=1;rounded=0;fontStyle=1;strokeWidth=2;" edge="1" parent="1">
          <mxGeometry width="50" height="50" relative="1" as="geometry">
            <mxPoint x="-570" y="690" as="sourcePoint" />
            <mxPoint x="780" y="690" as="targetPoint" />
          </mxGeometry>
        </mxCell>
        <mxCell id="Du-NIZGoXaYUD2i4s6GD-98" value="" style="endArrow=none;dashed=1;html=1;rounded=0;fontStyle=1;strokeWidth=2;entryX=0.5;entryY=1;entryDx=0;entryDy=0;" edge="1" parent="1" source="Du-NIZGoXaYUD2i4s6GD-100" target="Du-NIZGoXaYUD2i4s6GD-2">
          <mxGeometry width="50" height="50" relative="1" as="geometry">
            <mxPoint x="-130" y="791" as="sourcePoint" />
            <mxPoint x="-410.42" y="120" as="targetPoint" />
            <Array as="points" />
          </mxGeometry>
        </mxCell>
        <mxCell id="Du-NIZGoXaYUD2i4s6GD-101" value="" style="endArrow=none;dashed=1;html=1;rounded=0;fontStyle=1;strokeWidth=2;entryX=0.5;entryY=1;entryDx=0;entryDy=0;" edge="1" parent="1" target="Du-NIZGoXaYUD2i4s6GD-100">
          <mxGeometry width="50" height="50" relative="1" as="geometry">
            <mxPoint x="-130" y="791" as="sourcePoint" />
            <mxPoint x="-130" y="110" as="targetPoint" />
            <Array as="points" />
          </mxGeometry>
        </mxCell>
        <mxCell id="Du-NIZGoXaYUD2i4s6GD-100" value="" style="html=1;points=[];perimeter=orthogonalPerimeter;outlineConnect=0;targetShapes=umlLifeline;portConstraint=eastwest;newEdgeStyle={&quot;edgeStyle&quot;:&quot;elbowEdgeStyle&quot;,&quot;elbow&quot;:&quot;vertical&quot;,&quot;curved&quot;:0,&quot;rounded&quot;:0};" vertex="1" parent="1">
          <mxGeometry x="-135" y="390" width="10" height="33" as="geometry" />
        </mxCell>
        <mxCell id="Du-NIZGoXaYUD2i4s6GD-102" value="" style="html=1;points=[];perimeter=orthogonalPerimeter;outlineConnect=0;targetShapes=umlLifeline;portConstraint=eastwest;newEdgeStyle={&quot;edgeStyle&quot;:&quot;elbowEdgeStyle&quot;,&quot;elbow&quot;:&quot;vertical&quot;,&quot;curved&quot;:0,&quot;rounded&quot;:0};" vertex="1" parent="1">
          <mxGeometry x="141" y="190" width="10" height="190" as="geometry" />
        </mxCell>
        <mxCell id="Du-NIZGoXaYUD2i4s6GD-104" value="" style="endArrow=open;endFill=1;endSize=12;html=1;rounded=0;fontStyle=1;strokeWidth=2;" edge="1" parent="1" target="Du-NIZGoXaYUD2i4s6GD-103">
          <mxGeometry width="160" relative="1" as="geometry">
            <mxPoint x="437" y="580" as="sourcePoint" />
            <mxPoint x="680" y="580" as="targetPoint" />
          </mxGeometry>
        </mxCell>
        <mxCell id="Du-NIZGoXaYUD2i4s6GD-103" value="" style="html=1;points=[];perimeter=orthogonalPerimeter;outlineConnect=0;targetShapes=umlLifeline;portConstraint=eastwest;newEdgeStyle={&quot;edgeStyle&quot;:&quot;elbowEdgeStyle&quot;,&quot;elbow&quot;:&quot;vertical&quot;,&quot;curved&quot;:0,&quot;rounded&quot;:0};" vertex="1" parent="1">
          <mxGeometry x="432" y="530" width="10" height="230" as="geometry" />
        </mxCell>
        <mxCell id="Du-NIZGoXaYUD2i4s6GD-105" value="" style="html=1;points=[];perimeter=orthogonalPerimeter;outlineConnect=0;targetShapes=umlLifeline;portConstraint=eastwest;newEdgeStyle={&quot;edgeStyle&quot;:&quot;elbowEdgeStyle&quot;,&quot;elbow&quot;:&quot;vertical&quot;,&quot;curved&quot;:0,&quot;rounded&quot;:0};" vertex="1" parent="1">
          <mxGeometry x="675" y="210" width="10" height="170" as="geometry" />
        </mxCell>
        <mxCell id="Du-NIZGoXaYUD2i4s6GD-107" value="" style="html=1;points=[];perimeter=orthogonalPerimeter;outlineConnect=0;targetShapes=umlLifeline;portConstraint=eastwest;newEdgeStyle={&quot;edgeStyle&quot;:&quot;elbowEdgeStyle&quot;,&quot;elbow&quot;:&quot;vertical&quot;,&quot;curved&quot;:0,&quot;rounded&quot;:0};" vertex="1" parent="1">
          <mxGeometry x="675" y="560" width="10" height="200" as="geometry" />
        </mxCell>
      </root>
    </mxGraphModel>
  </diagram>
</mxfile>
